<svg width="56" height="68" viewBox="0 0 56 68" fill="none" xmlns="http://www.w3.org/2000/svg">
<path d="M22.2875 42.7979C23.0429 39.9787 24.292 37.8233 26.0346 36.3317C27.8434 34.8019 30.2685 33.2694 33.3099 31.7341C35.6371 30.5671 37.4053 29.502 38.6146 28.5391C39.8901 27.5379 40.7377 26.2541 41.1574 24.6879C41.7449 22.4951 41.333 20.4822 39.9216 18.6491C38.5103 16.8161 36.3166 15.5008 33.3407 14.7034C27.7022 13.1926 22.9086 14.0625 18.9599 17.3132L12.6856 10.344C15.7559 7.86524 19.283 6.29225 23.2669 5.62505C27.2647 4.90565 31.6652 5.18945 36.4684 6.47646C42.3158 8.04326 46.6196 10.5674 49.3799 14.0489C52.2064 17.4922 53.0251 21.4328 51.836 25.8705C51.2625 28.0111 50.3934 29.7926 49.2288 31.2153C48.1164 32.6519 46.9104 33.8116 45.6107 34.6944C44.3249 35.5249 42.677 36.4543 40.6668 37.4825C38.2072 38.726 36.2996 39.8936 34.9439 40.9852C33.6404 42.0908 32.7369 43.5834 32.2333 45.4629L22.2875 42.7979ZM22.2844 62.8577C20.4571 62.3681 19.0969 61.3881 18.2039 59.9178C17.3771 58.4092 17.1945 56.7935 17.6561 55.0706C18.1178 53.3477 19.0768 52.0659 20.5331 51.225C22.0417 50.3982 23.7096 50.2296 25.5369 50.7192C27.312 51.1948 28.62 52.1608 29.4608 53.6172C30.3538 55.0875 30.5695 56.6842 30.1079 58.407C29.6462 60.1299 28.6541 61.4309 27.1316 62.3099C25.6752 63.1508 24.0595 63.3334 22.2844 62.8577Z" fill="#F9AF31"/>
</svg>
